<svg version="1.1" xmlns="http://www.w3.org/2000/svg" viewBox="0 0 456 509.59998321533203" width="456" height="509.59998321533203">
  <!-- svg-source:excalidraw -->
  
  <defs>
    <style>
      @font-face {
        font-family: "Virgil";
        src: url("https://excalidraw.com/Virgil.woff2");
      }
      @font-face {
        font-family: "Cascadia";
        src: url("https://excalidraw.com/Cascadia.woff2");
      }
    </style>
  </defs>
  <rect x="0" y="0" width="456" height="509.59998321533203" fill="#ffffff"></rect><g stroke-linecap="round" transform="translate(10 10) rotate(0 218 244.79999160766602)"><path d="M-0.08 -0.58 C130.33 -1.23, 258.95 -1.34, 436.03 0.38 M-0.06 0.45 C131.36 -0.32, 261.65 0.17, 435.52 -0.36 M435.68 -0.48 C434.86 160.5, 435.31 321.09, 436.52 489.22 M436.3 -0.26 C437.79 185.51, 437.62 370.74, 436.29 489.79 M435.95 490.55 C328.97 491.13, 221.42 490.15, 0.27 489.12 M436.13 489.29 C262.23 487.34, 87.9 487.04, -0.26 489.73 M-0.27 490.41 C0.39 343.7, -0.07 199.37, 0.3 -0.58 M-0.09 489.7 C1.2 297.25, 1.13 104.12, -0.12 0.07" stroke="#000000" stroke-width="1" fill="none"></path></g><g stroke-linecap="round" transform="translate(181.20001220703125 43.59999084472656) rotate(0 45.5999755859375 47.600006103515625)"><path d="M43.32 -0.88 C51.1 -1.96, 60.52 1.87, 67.69 6.31 C74.87 10.76, 82.57 18.2, 86.37 25.8 C90.16 33.39, 91.23 43.24, 90.47 51.88 C89.71 60.53, 86.72 70.89, 81.79 77.66 C76.87 84.44, 68.73 89.72, 60.93 92.52 C53.12 95.32, 42.94 96.46, 34.96 94.46 C26.97 92.47, 18.79 86.82, 13.01 80.55 C7.24 74.28, 1.89 65.28, 0.33 56.84 C-1.23 48.4, 0.58 38, 3.65 29.9 C6.72 21.8, 10.78 13.1, 18.74 8.23 C26.69 3.35, 45.03 1.51, 51.4 0.65 C57.77 -0.22, 57.03 2.33, 56.96 3.03 M43.33 -0.88 C51.35 -1.75, 61.18 2.82, 68.2 7.12 C75.22 11.43, 81.74 17.73, 85.44 24.96 C89.14 32.2, 91.23 41.68, 90.4 50.54 C89.56 59.4, 85.29 71.29, 80.41 78.12 C75.54 84.94, 68.73 88.76, 61.13 91.47 C53.53 94.18, 42.83 96, 34.81 94.37 C26.78 92.74, 18.75 87.66, 12.98 81.67 C7.21 75.69, 1.78 67.2, 0.17 58.45 C-1.43 49.7, 0.05 37.54, 3.37 29.17 C6.7 20.8, 13.27 13.3, 20.11 8.25 C26.95 3.2, 40.82 -0.04, 44.43 -1.12 C48.04 -2.21, 42.11 0.96, 41.77 1.75" stroke="#000000" stroke-width="1" fill="none"></path></g><g stroke-linecap="round" transform="translate(66.08900960286451 83.8666703965929) rotate(0 159.60000610351562 186.4000015258789)"><path d="M-0.12 0.12 C76.38 -0.66, 153.83 0.77, 317.91 -0.18 M-0.25 -0.32 C69.26 -1.78, 138.71 -1.77, 319.14 0.29 M318.42 0.98 C317.37 122.04, 317.39 243.03, 318.91 372.07 M319.32 -0.36 C317.29 74.94, 317.51 149.86, 319.1 372.27 M320.2 372.02 C236.14 375.31, 155.71 373.64, 0.83 372.54 M318.61 373.16 C232.55 371.83, 144.41 371.51, -0.18 373.45 M0.01 373.49 C-2.23 286.34, -2.35 199.89, 0.3 0.81 M-0.02 372.4 C1.9 242.56, 1.66 112.97, -0.29 0.25" stroke="#000000" stroke-width="1" fill="none"></path></g><g stroke-linecap="round" transform="translate(179.8881571054883 188.98687098453374) rotate(8.940378879014194 38.79998779296875 58)"><path d="M2 0.91 C20.12 -1.35, 40.82 0.16, 78.08 -1.34 M-0.9 0.81 C19.97 -0.58, 41.09 0.43, 78.39 -0.58 M76.88 1.49 C77.38 37.23, 74.86 74.34, 76.2 115.59 M77.82 -0.5 C77.33 24.29, 76.25 49.28, 77.59 116.11 M78.71 117.93 C47.45 115.84, 20.04 115.79, 0 117.31 M78.26 116.86 C49.28 116.08, 21.89 114.78, 0.99 115.71 M-1.79 114.52 C-2.25 92.21, -0.51 69.06, 0.35 -0.68 M-0.06 115.47 C0.46 80.91, -0.27 46.73, 0.92 0.82" stroke="#000000" stroke-width="1" fill="none"></path></g><g transform="translate(274.9279309261252 238.34090583114735) rotate(16.962070899344894 24.5 37)"><text x="0" y="17.666666666666668" font-family="Virgil, Segoe UI Emoji" font-size="20px" fill="#000000" text-anchor="start" style="white-space: pre;" direction="ltr">Small</text><text x="0" y="42.333333333333336" font-family="Virgil, Segoe UI Emoji" font-size="20px" fill="#000000" text-anchor="start" style="white-space: pre;" direction="ltr">text</text><text x="0" y="67" font-family="Virgil, Segoe UI Emoji" font-size="20px" fill="#000000" text-anchor="start" style="white-space: pre;" direction="ltr">desc</text></g><g stroke-linecap="round" transform="translate(101.99993896484375 453.20001220703125) rotate(0 127.20001220703125 17.20001220703125)"><path d="M1.51 1.53 C80.6 -0.8, 162.51 -2.03, 255.56 1.54 M-0.45 -0.22 C69.56 -1.14, 139.22 -1.26, 253.64 0.21 M254.21 -1.66 C255.34 11.47, 255.4 20.88, 256.31 34.43 M254.88 0.57 C254.75 9.85, 254.73 21.19, 255.02 33.89 M253.81 33.87 C154.04 32.97, 53.79 34.25, -0.29 35.67 M253.92 34.07 C198.77 32.68, 144.09 33.01, -0.59 34.95 M-0.66 33.92 C-1.08 26.69, 2.09 16.58, 0.18 -0.2 M-0.6 34.51 C-0.14 26.42, 0.37 16.59, 0.57 -0.05" stroke="#000000" stroke-width="1" fill="none"></path></g><g transform="translate(150.79998779296875 454.5999755859375) rotate(0 90.5 12.5)"><text x="0" y="18" font-family="Virgil, Segoe UI Emoji" font-size="20px" fill="#000000" text-anchor="start" style="white-space: pre;" direction="ltr">contact/link pages</text></g><g transform="translate(199.7777370876736 75.57775539822049) rotate(0 27 12.5)"><text x="0" y="18" font-family="Virgil, Segoe UI Emoji" font-size="20px" fill="#000000" text-anchor="start" style="white-space: pre;" direction="ltr">photo</text></g><g stroke-linecap="round"><g transform="translate(249.95253377032395 221.99797435816697) rotate(33.056479564679975 32.767940979878404 -7.548403568891075)"><path d="M-0.75 0.17 C10.35 -2.34, 55.4 -12.92, 66.28 -15.27 M1.06 -0.78 C12.09 -3.1, 54.73 -11.42, 65.7 -13.92" stroke="#000000" stroke-width="1" fill="none"></path></g><g transform="translate(249.95253377032395 221.99797435816697) rotate(33.056479564679975 32.767940979878404 -7.548403568891075)"><path d="M40.5 3.06 C46.67 -4.07, 55.91 -8.24, 66.71 -13.11 M41.14 1.03 C45.42 -1.63, 51.94 -5.54, 65.18 -13.91" stroke="#000000" stroke-width="1" fill="none"></path></g><g transform="translate(249.95253377032395 221.99797435816697) rotate(33.056479564679975 32.767940979878404 -7.548403568891075)"><path d="M36.29 -17.02 C43.59 -18.59, 53.99 -17.23, 66.71 -13.11 M36.93 -19.06 C42.02 -17.32, 49.47 -16.82, 65.18 -13.91" stroke="#000000" stroke-width="1" fill="none"></path></g></g><g stroke-linecap="round" transform="translate(262.2852157138749 211.88572822162956) rotate(11.256023171127824 36.800018310546875 57.19996643066406)"><path d="M-0.41 -0.42 C18.67 -1.16, 38.02 0.08, 74.61 -1.86 M0.43 0.4 C27.51 -0.78, 55.72 -0.2, 72.81 0.72 M74.64 1.35 C73 30.23, 74.23 59.22, 72.47 114.14 M74.26 -0.3 C73.35 24.3, 73.76 49.72, 72.84 113.89 M73.01 114.08 C56.24 113.14, 41.48 113.94, 0.77 114.24 M74.44 115.17 C52.74 113.98, 29.78 113.76, 0.48 114.93 M0.92 114.93 C0.95 86.94, 1.61 57.09, 0.45 -1.93 M0.35 113.92 C0.73 88.68, 1.4 62.35, 0.16 -0.97" stroke="#000000" stroke-width="1" fill="none"></path></g><g transform="translate(193.16090310490415 205.49926425278224) rotate(9.81112097729143 22.5 49.5)"><text x="0" y="17.75" font-family="Virgil, Segoe UI Emoji" font-size="20px" fill="#000000" text-anchor="start" style="white-space: pre;" direction="ltr">Open</text><text x="0" y="42.5" font-family="Virgil, Segoe UI Emoji" font-size="20px" fill="#000000" text-anchor="start" style="white-space: pre;" direction="ltr">like</text><text x="0" y="67.25" font-family="Virgil, Segoe UI Emoji" font-size="20px" fill="#000000" text-anchor="start" style="white-space: pre;" direction="ltr">a</text><text x="0" y="92" font-family="Virgil, Segoe UI Emoji" font-size="20px" fill="#000000" text-anchor="start" style="white-space: pre;" direction="ltr">book</text></g><g transform="translate(194.73331027560755 140.75551689995655) rotate(0 92.40664401584212 13.833329942491332)"><text x="0" y="19.666659884982668" font-family="Virgil, Segoe UI Emoji" font-size="22.133327907986132px" fill="#000000" text-anchor="start" style="white-space: pre;" direction="ltr">background image</text></g><g transform="translate(87.82221137152794 295.68887668185766) rotate(0 2.666659884982664 53.77777099609378)" stroke="none"><path fill="#000000" d="M 1.90,-0.47 Q 1.90,-0.47 2.33,1.58 2.76,3.65 3.06,5.10 3.37,6.54 3.39,9.04 3.41,11.53 3.46,13.32 3.52,15.11 3.55,16.90 3.58,18.68 3.64,20.21 3.70,21.74 3.67,23.66 3.64,25.59 3.63,27.43 3.63,29.27 3.63,31.08 3.63,32.88 3.81,35.62 3.99,38.35 4.32,40.24 4.65,42.12 5.10,43.66 5.55,45.19 6.00,46.89 6.45,48.59 6.62,50.74 6.79,52.88 6.87,54.79 6.95,56.71 7.07,58.03 7.18,59.35 7.27,60.68 7.35,62.02 7.42,63.10 7.50,64.17 7.55,65.40 7.61,66.63 7.69,68.76 7.77,70.88 7.86,72.58 7.96,74.27 8.04,75.67 8.11,77.07 8.17,78.78 8.22,80.49 8.28,81.63 8.33,82.78 8.37,84.34 8.40,85.89 8.02,87.70 7.65,89.51 7.67,90.64 7.70,91.77 7.36,92.98 7.01,94.18 6.92,95.66 6.83,97.14 6.83,98.40 6.82,99.65 6.86,101.05 6.89,102.44 6.92,105.00 6.96,107.55 6.87,108.09 6.78,108.64 6.52,109.12 6.26,109.61 5.86,109.99 5.46,110.37 4.96,110.60 4.46,110.83 3.91,110.89 3.37,110.95 2.83,110.83 2.29,110.71 1.82,110.43 1.35,110.15 0.99,109.73 0.63,109.31 0.43,108.79 0.22,108.28 0.19,107.73 0.16,107.18 0.31,106.65 0.46,106.12 0.77,105.66 1.08,105.21 1.52,104.87 1.96,104.54 2.48,104.37 3.00,104.19 3.55,104.19 4.10,104.19 4.62,104.37 5.15,104.54 5.59,104.88 6.02,105.21 6.33,105.66 6.64,106.12 6.79,106.65 6.94,107.18 6.91,107.73 6.88,108.28 6.67,108.80 6.47,109.31 6.11,109.73 5.75,110.15 5.28,110.43 4.81,110.71 4.27,110.83 3.73,110.95 3.19,110.89 2.64,110.83 2.14,110.60 1.64,110.37 1.24,109.99 0.84,109.61 0.58,109.12 0.32,108.64 0.23,108.09 0.14,107.55 0.14,107.55 0.14,107.55 0.18,104.99 0.21,102.43 0.26,100.99 0.30,99.55 0.36,98.21 0.41,96.87 0.45,95.60 0.49,94.33 0.86,92.89 1.24,91.46 1.36,89.91 1.49,88.37 1.87,87.13 2.25,85.89 2.29,84.34 2.33,82.78 2.38,81.63 2.44,80.49 2.49,78.78 2.54,77.07 2.62,75.67 2.70,74.27 2.79,72.58 2.89,70.89 2.97,68.76 3.04,66.64 3.09,65.42 3.14,64.20 3.20,63.13 3.27,62.06 3.32,60.75 3.37,59.44 3.42,58.15 3.47,56.85 3.40,55.02 3.33,53.19 3.13,51.33 2.94,49.47 2.53,47.77 2.12,46.07 1.75,44.40 1.37,42.73 0.98,40.70 0.58,38.66 0.25,35.77 -0.08,32.88 -0.08,31.08 -0.07,29.28 -0.08,27.44 -0.09,25.60 -0.13,23.68 -0.16,21.75 -0.12,20.24 -0.07,18.72 -0.08,16.95 -0.08,15.19 -0.10,13.43 -0.12,11.66 -0.29,9.40 -0.45,7.14 -0.59,5.83 -0.72,4.52 -1.31,2.50 -1.90,0.47 -1.93,0.24 -1.96,0.00 -1.93,-0.22 -1.90,-0.46 -1.82,-0.68 -1.74,-0.90 -1.60,-1.10 -1.47,-1.29 -1.29,-1.45 -1.12,-1.61 -0.91,-1.72 -0.70,-1.83 -0.47,-1.89 -0.24,-1.94 -0.00,-1.94 0.23,-1.95 0.46,-1.89 0.69,-1.83 0.90,-1.72 1.11,-1.62 1.28,-1.46 1.46,-1.30 1.60,-1.11 1.73,-0.91 1.82,-0.69 1.90,-0.47 1.90,-0.47 L 1.90,-0.47 Z"></path></g><g transform="translate(349.15555826822924 396.1333143446181) rotate(0 0.44443766276049246 29.333343505859375)" stroke="none"><path fill="#000000" d="M 2.39,0 Q 2.39,0 2.41,1.27 2.44,2.55 2.53,4.31 2.62,6.07 2.68,7.99 2.73,9.91 2.70,11.40 2.67,12.90 2.61,14.55 2.55,16.21 2.54,17.68 2.53,19.15 2.72,20.61 2.92,22.08 2.89,24.44 2.87,26.81 2.81,29.07 2.74,31.33 2.84,32.53 2.93,33.74 2.96,35.28 2.99,36.83 2.99,38.51 2.99,40.18 3.05,41.41 3.11,42.63 3.15,43.92 3.19,45.20 3.14,47.03 3.08,48.85 3.09,50.40 3.10,51.94 3.13,53.36 3.16,54.78 0.86,55.83 -1.43,56.88 -1.37,56.51 -1.31,56.14 -1.13,55.81 -0.96,55.48 -0.68,55.22 -0.41,54.96 -0.07,54.80 0.26,54.65 0.64,54.60 1.01,54.56 1.38,54.64 1.74,54.73 2.07,54.92 2.39,55.11 2.63,55.40 2.87,55.69 3.01,56.04 3.15,56.38 3.17,56.76 3.19,57.14 3.09,57.50 2.99,57.86 2.78,58.17 2.57,58.48 2.27,58.71 1.97,58.94 1.62,59.06 1.26,59.18 0.88,59.18 0.51,59.18 0.15,59.06 -0.19,58.94 -0.49,58.71 -0.79,58.48 -1.00,58.17 -1.21,57.86 -1.32,57.50 -1.42,57.13 -1.40,56.76 -1.38,56.38 -1.24,56.03 -1.10,55.69 -0.85,55.40 -0.61,55.11 -0.29,54.92 0.02,54.73 0.39,54.64 0.76,54.56 1.13,54.60 1.51,54.65 1.85,54.80 2.19,54.96 2.46,55.22 2.73,55.48 2.91,55.81 3.09,56.14 3.15,56.51 3.21,56.88 3.21,56.88 3.21,56.88 0.91,55.83 -1.38,54.78 -1.35,53.36 -1.33,51.94 -1.32,50.40 -1.31,48.85 -1.36,47.03 -1.42,45.21 -1.38,43.92 -1.34,42.64 -1.28,41.41 -1.23,40.19 -1.23,38.52 -1.24,36.85 -1.23,35.33 -1.21,33.81 -1.16,32.61 -1.10,31.41 -1.26,29.21 -1.41,27.02 -1.65,24.92 -1.90,22.82 -2.21,20.99 -2.53,19.16 -2.54,17.69 -2.55,16.21 -2.61,14.55 -2.67,12.90 -2.70,11.40 -2.73,9.91 -2.68,7.99 -2.62,6.07 -2.53,4.31 -2.44,2.55 -2.41,1.27 -2.39,0 -2.35,-0.28 -2.32,-0.57 -2.21,-0.84 -2.11,-1.11 -1.95,-1.34 -1.79,-1.58 -1.57,-1.77 -1.35,-1.96 -1.10,-2.10 -0.84,-2.23 -0.56,-2.30 -0.28,-2.37 0.00,-2.37 0.28,-2.37 0.56,-2.30 0.84,-2.23 1.10,-2.10 1.35,-1.96 1.57,-1.77 1.79,-1.58 1.95,-1.34 2.11,-1.11 2.21,-0.84 2.32,-0.57 2.35,-0.28 2.39,0.00 2.39,0.00 L 2.39,0 Z"></path></g><g transform="translate(90.48890516493077 277.9110989040799) rotate(0 130.6666395399305 56.4444817437066)" stroke="none"><path fill="#000000" d="M 0,-1.94 Q 0,-1.94 2.30,-1.85 4.60,-1.77 7.27,-1.18 9.95,-0.59 11.48,-0.44 13.02,-0.29 15.32,0.39 17.62,1.07 19.45,1.87 21.28,2.67 22.56,3.18 23.84,3.69 25.29,4.12 26.75,4.55 28.32,5.30 29.90,6.05 31.70,6.91 33.50,7.77 35.54,8.68 37.57,9.60 39.78,10.81 41.98,12.02 44.12,13.03 46.26,14.04 48.51,15.27 50.75,16.51 53.38,17.50 56.01,18.50 58.51,19.74 61.01,20.97 64.04,22.24 67.08,23.51 69.75,25.13 72.43,26.75 75.03,28.17 77.63,29.59 80.04,30.97 82.45,32.36 85.49,33.96 88.53,35.55 92.65,37.78 96.77,40.00 100.52,41.69 104.27,43.38 108.24,45.67 112.21,47.96 115.92,50.20 119.64,52.45 122.22,53.90 124.80,55.35 128.20,57.25 131.60,59.15 135.11,61.24 138.62,63.34 140.88,64.74 143.14,66.15 144.88,67.24 146.62,68.34 148.35,69.28 150.08,70.22 151.70,71.43 153.32,72.64 154.86,73.27 156.40,73.91 157.96,74.72 159.52,75.53 160.97,76.37 162.43,77.21 163.38,77.80 164.34,78.38 165.64,79.07 166.94,79.76 168.21,80.26 169.49,80.76 171.11,81.56 172.74,82.35 174.13,82.88 175.53,83.41 177.28,83.93 179.04,84.45 180.45,84.90 181.86,85.34 183.38,85.77 184.90,86.20 187.33,87.00 189.77,87.81 192.42,88.98 195.07,90.15 197.41,91.17 199.76,92.18 201.73,92.87 203.69,93.55 205.85,94.38 208.00,95.21 210.05,95.54 212.09,95.86 213.64,96.18 215.19,96.51 217.04,96.92 218.89,97.33 220.52,97.72 222.14,98.11 223.93,98.84 225.73,99.56 227.20,100.05 228.67,100.54 230.38,101.31 232.09,102.08 233.93,102.66 235.78,103.25 237.62,103.75 239.46,104.26 241.16,104.43 242.85,104.61 244.71,104.95 246.57,105.30 247.96,105.65 249.36,106.01 250.51,106.08 251.67,106.15 252.92,106.45 254.17,106.75 256.19,107.45 258.21,108.14 259.19,108.60 260.16,109.05 261.16,109.84 262.17,110.64 262.04,110.54 261.91,110.44 262.15,110.65 262.38,110.86 262.56,111.12 262.74,111.39 262.85,111.68 262.96,111.98 262.99,112.30 263.03,112.61 262.99,112.93 262.95,113.24 262.83,113.54 262.72,113.83 262.54,114.09 262.35,114.35 262.11,114.56 261.88,114.77 261.59,114.91 261.31,115.06 261.00,115.13 260.70,115.20 260.38,115.20 260.06,115.20 259.75,115.12 259.45,115.04 259.17,114.89 258.89,114.74 257.08,113.67 255.28,112.60 252.98,110.65 250.68,108.70 250.40,108.37 250.12,108.03 249.96,107.63 249.80,107.22 249.78,106.78 249.76,106.35 249.88,105.93 250.00,105.51 250.25,105.15 250.50,104.79 250.85,104.53 251.20,104.27 251.61,104.14 252.03,104.00 252.46,104.00 252.90,104.01 253.31,104.15 253.72,104.29 254.07,104.56 254.41,104.83 254.65,105.19 254.89,105.55 255.01,105.97 255.12,106.39 255.09,106.83 255.07,107.26 254.90,107.67 254.74,108.07 254.45,108.40 254.17,108.73 253.79,108.95 253.42,109.17 252.99,109.26 252.56,109.35 252.13,109.30 251.70,109.25 251.30,109.06 250.91,108.88 250.60,108.58 250.28,108.27 250.08,107.89 249.88,107.50 249.81,107.07 249.75,106.64 249.82,106.21 249.89,105.78 250.10,105.40 250.31,105.01 250.63,104.72 250.95,104.42 251.34,104.24 251.74,104.06 252.17,104.02 252.61,103.97 253.03,104.07 253.46,104.17 253.83,104.40 254.20,104.62 254.20,104.62 254.20,104.62 256.18,106.36 258.15,108.10 260.03,109.27 261.91,110.44 262.15,110.65 262.38,110.86 262.56,111.12 262.74,111.39 262.85,111.68 262.96,111.98 262.99,112.30 263.03,112.61 262.99,112.93 262.95,113.24 262.83,113.54 262.72,113.83 262.54,114.09 262.35,114.35 262.11,114.56 261.88,114.77 261.59,114.91 261.31,115.06 261.00,115.13 260.70,115.20 260.38,115.20 260.06,115.20 259.75,115.12 259.45,115.04 259.17,114.89 258.89,114.74 258.38,114.11 257.87,113.47 256.17,112.43 254.47,111.39 252.80,110.81 251.12,110.22 249.66,109.95 248.20,109.68 247.05,109.23 245.90,108.78 244.17,108.43 242.44,108.09 240.51,107.84 238.57,107.59 236.69,107.10 234.80,106.61 232.68,106.04 230.57,105.48 228.97,104.76 227.37,104.04 225.88,103.43 224.38,102.82 222.79,102.15 221.21,101.47 219.69,100.99 218.18,100.51 216.25,100.07 214.32,99.64 212.99,99.16 211.65,98.69 209.32,98.34 206.99,97.98 204.86,97.23 202.74,96.47 200.64,95.83 198.54,95.18 196.14,94.27 193.74,93.35 191.23,92.39 188.73,91.43 186.24,90.83 183.75,90.22 182.10,89.74 180.46,89.26 179.24,88.77 178.02,88.28 176.00,87.80 173.97,87.31 172.47,86.69 170.97,86.06 169.40,85.33 167.83,84.61 166.40,83.94 164.97,83.27 162.76,81.75 160.56,80.22 159.22,79.33 157.88,78.44 156.50,77.58 155.11,76.73 153.32,75.85 151.53,74.96 150.13,73.81 148.72,72.65 146.94,71.63 145.16,70.61 143.46,69.49 141.75,68.38 139.51,66.99 137.27,65.60 133.80,63.52 130.32,61.45 126.92,59.55 123.51,57.65 120.89,56.18 118.28,54.70 114.58,52.47 110.89,50.24 107.03,48.01 103.18,45.79 99.34,44.06 95.51,42.33 91.40,40.12 87.29,37.91 84.21,36.29 81.12,34.68 78.74,33.31 76.35,31.95 73.69,30.51 71.03,29.06 68.53,27.55 66.03,26.04 62.90,24.76 59.78,23.47 57.40,22.31 55.02,21.16 52.20,20.12 49.37,19.08 47.19,17.94 45.01,16.80 42.76,15.82 40.51,14.84 38.39,13.79 36.27,12.74 34.15,11.94 32.03,11.14 30.07,10.35 28.10,9.57 26.83,8.88 25.56,8.18 23.92,7.60 22.27,7.03 21.09,6.37 19.90,5.72 18.32,4.98 16.74,4.25 14.64,3.73 12.53,3.20 10.91,2.92 9.29,2.63 6.94,2.20 4.59,1.77 2.29,1.85 0,1.94 -0.23,1.91 -0.46,1.88 -0.68,1.80 -0.90,1.71 -1.09,1.58 -1.28,1.45 -1.44,1.27 -1.59,1.10 -1.70,0.89 -1.81,0.68 -1.87,0.46 -1.92,0.23 -1.92,-0.00 -1.92,-0.23 -1.87,-0.46 -1.81,-0.68 -1.70,-0.89 -1.59,-1.10 -1.44,-1.27 -1.28,-1.45 -1.09,-1.58 -0.90,-1.71 -0.68,-1.80 -0.46,-1.88 -0.23,-1.91 0.00,-1.94 0.00,-1.94 L 0,-1.94 Z"></path></g><g transform="translate(95.82222493489598 270.7999945746528) rotate(0 47.999979654947936 -40.8888922797309)" stroke="none"><path fill="#000000" d="M -2.13,-0.71 Q -2.13,-0.71 -1.60,-2.25 -1.08,-3.80 0.39,-5.70 1.88,-7.61 2.58,-8.80 3.29,-9.99 4.18,-11.15 5.06,-12.31 6.05,-13.21 7.05,-14.11 8.42,-15.31 9.79,-16.51 11.23,-17.62 12.67,-18.74 13.32,-19.60 13.97,-20.46 14.84,-21.45 15.70,-22.44 16.71,-23.26 17.71,-24.09 18.72,-25.10 19.72,-26.12 20.69,-26.80 21.66,-27.48 22.42,-28.27 23.17,-29.06 24.83,-30.48 26.49,-31.90 28.00,-33.39 29.51,-34.88 31.07,-35.92 32.62,-36.97 33.71,-37.87 34.80,-38.78 35.73,-39.38 36.66,-39.99 38.37,-40.93 40.09,-41.87 41.73,-43.08 43.38,-44.29 44.75,-45.16 46.12,-46.04 47.81,-47.62 49.49,-49.21 50.40,-50.44 51.31,-51.68 52.28,-52.77 53.26,-53.86 54.33,-55.09 55.41,-56.32 56.29,-57.44 57.18,-58.56 58.73,-59.97 60.28,-61.37 61.55,-62.27 62.81,-63.16 63.91,-64.31 65.00,-65.45 65.95,-65.96 66.90,-66.47 67.96,-67.47 69.03,-68.46 70.00,-69.10 70.96,-69.73 72.43,-70.42 73.89,-71.10 75.18,-71.79 76.46,-72.49 77.70,-73.48 78.93,-74.48 80.29,-75.16 81.65,-75.83 83.03,-76.62 84.40,-77.42 85.71,-78.29 87.02,-79.16 87.85,-79.96 88.67,-80.76 90.29,-82.02 91.91,-83.28 92.63,-83.46 93.36,-83.64 93.73,-84.01 94.10,-84.38 94.56,-84.62 95.03,-84.85 95.55,-84.93 96.06,-85.00 96.58,-84.90 97.09,-84.81 97.55,-84.55 98.00,-84.30 98.35,-83.91 98.70,-83.53 98.91,-83.05 99.12,-82.57 99.17,-82.05 99.21,-81.53 99.09,-81.02 98.97,-80.51 98.69,-80.07 98.41,-79.63 98.00,-79.30 97.60,-78.97 97.11,-78.79 96.62,-78.61 96.10,-78.59 95.58,-78.57 95.08,-78.72 94.58,-78.87 94.15,-79.18 93.73,-79.48 93.42,-79.90 93.11,-80.32 92.96,-80.82 92.80,-81.32 92.81,-81.84 92.82,-82.36 93.00,-82.85 93.18,-83.35 93.50,-83.75 93.83,-84.16 94.27,-84.45 94.70,-84.73 95.21,-84.86 95.72,-84.99 96.24,-84.95 96.76,-84.91 97.24,-84.71 97.72,-84.50 98.11,-84.15 98.50,-83.81 98.76,-83.36 99.02,-82.90 99.12,-82.39 99.22,-81.88 99.15,-81.36 99.09,-80.84 98.86,-80.37 98.63,-79.90 98.63,-79.90 98.63,-79.90 96.55,-78.74 94.47,-77.57 93.23,-76.38 91.99,-75.19 90.61,-74.14 89.23,-73.10 87.69,-72.18 86.14,-71.26 85.17,-70.79 84.20,-70.32 82.83,-69.49 81.45,-68.67 80.52,-68.00 79.60,-67.34 78.23,-66.41 76.86,-65.49 75.67,-64.78 74.49,-64.07 73.54,-63.35 72.58,-62.64 71.19,-61.60 69.80,-60.56 68.79,-59.94 67.78,-59.31 66.20,-57.91 64.61,-56.50 63.51,-55.73 62.41,-54.96 60.86,-53.54 59.32,-52.12 57.92,-50.46 56.52,-48.81 55.55,-47.84 54.59,-46.87 53.00,-45.38 51.40,-43.90 50.35,-42.78 49.29,-41.66 47.11,-40.08 44.92,-38.50 42.95,-37.24 40.97,-35.99 39.64,-35.36 38.30,-34.74 37.14,-33.68 35.97,-32.62 33.89,-30.84 31.81,-29.06 30.54,-27.84 29.26,-26.62 28.16,-25.70 27.05,-24.78 26.01,-23.91 24.97,-23.05 23.50,-22.17 22.02,-21.29 20.54,-20.28 19.06,-19.27 18.20,-18.41 17.34,-17.56 16.32,-16.49 15.31,-15.42 14.03,-14.39 12.75,-13.37 10.60,-11.44 8.44,-9.52 7.63,-8.62 6.83,-7.72 5.97,-6.47 5.12,-5.21 4.12,-3.77 3.12,-2.32 2.63,-0.80 2.13,0.71 2.01,0.95 1.90,1.20 1.73,1.41 1.55,1.62 1.34,1.78 1.12,1.94 0.87,2.05 0.62,2.16 0.35,2.20 0.09,2.24 -0.17,2.22 -0.44,2.20 -0.70,2.11 -0.96,2.03 -1.19,1.88 -1.42,1.74 -1.60,1.54 -1.79,1.35 -1.93,1.11 -2.06,0.88 -2.14,0.62 -2.22,0.36 -2.23,0.09 -2.24,-0.18 -2.18,-0.44 -2.13,-0.71 -2.13,-0.71 L -2.13,-0.71 Z"></path></g><g transform="translate(355.37775336371556 380.1333211263022) rotate(0 11.555548773871465 -9.77778116861981)" stroke="none"><path fill="#000000" d="M -1.56,-2.08 Q -1.56,-2.08 -0.53,-2.85 0.48,-3.63 1.38,-4.67 2.29,-5.72 4.39,-7.50 6.49,-9.29 8.00,-10.69 9.52,-12.09 11.35,-13.22 13.19,-14.35 14.16,-15.22 15.13,-16.09 16.27,-16.74 17.41,-17.40 18.26,-18.31 19.11,-19.21 19.90,-20.50 20.68,-21.79 21.10,-22.11 21.52,-22.44 22.03,-22.62 22.53,-22.80 23.06,-22.80 23.60,-22.81 24.11,-22.65 24.61,-22.48 25.04,-22.16 25.47,-21.85 25.77,-21.41 26.08,-20.97 26.23,-20.46 26.38,-19.95 26.36,-19.42 26.33,-18.88 26.14,-18.39 25.95,-17.89 25.61,-17.48 25.27,-17.07 24.82,-16.79 24.37,-16.50 23.85,-16.38 23.33,-16.26 22.80,-16.31 22.26,-16.36 21.78,-16.58 21.29,-16.80 20.90,-17.16 20.51,-17.52 20.25,-17.99 20.00,-18.46 19.90,-18.98 19.81,-19.51 19.89,-20.04 19.97,-20.56 20.21,-21.04 20.46,-21.51 20.84,-21.88 21.22,-22.25 21.70,-22.48 22.18,-22.72 22.71,-22.78 23.24,-22.84 23.77,-22.74 24.29,-22.63 24.75,-22.36 25.21,-22.09 25.56,-21.69 25.91,-21.29 26.11,-20.79 26.32,-20.30 26.35,-19.77 26.39,-19.24 26.25,-18.72 26.11,-18.20 25.82,-17.76 25.53,-17.31 25.53,-17.31 25.53,-17.31 24.13,-15.99 22.74,-14.67 21.69,-13.66 20.64,-12.66 19.06,-11.62 17.49,-10.59 15.89,-9.56 14.28,-8.54 12.95,-7.57 11.61,-6.61 9.73,-5.11 7.85,-3.60 7.04,-2.46 6.23,-1.31 4.92,-0.37 3.60,0.56 2.58,1.32 1.56,2.08 1.28,2.23 1.01,2.39 0.71,2.48 0.41,2.56 0.10,2.58 -0.21,2.59 -0.51,2.53 -0.82,2.46 -1.11,2.33 -1.39,2.19 -1.63,1.99 -1.87,1.80 -2.06,1.55 -2.25,1.29 -2.37,1.01 -2.50,0.72 -2.55,0.41 -2.60,0.10 -2.57,-0.21 -2.54,-0.52 -2.45,-0.82 -2.35,-1.11 -2.18,-1.38 -2.01,-1.64 -1.78,-1.86 -1.56,-2.08 -1.56,-2.08 L -1.56,-2.08 Z"></path></g><g transform="translate(318.93332248263914 168.4666612413195) rotate(0 26 12.5)"><text x="0" y="18" font-family="Virgil, Segoe UI Emoji" font-size="20px" fill="#000000" text-anchor="start" style="white-space: pre;" direction="ltr">table</text></g><g transform="translate(46.93333604600707 15.577765570746578) rotate(0 83 25)"><text x="0" y="18" font-family="Virgil, Segoe UI Emoji" font-size="20px" fill="#000000" text-anchor="start" style="white-space: pre;" direction="ltr">background image</text><text x="0" y="43" font-family="Virgil, Segoe UI Emoji" font-size="20px" fill="#000000" text-anchor="start" style="white-space: pre;" direction="ltr">house wood</text></g><g stroke-linecap="round" transform="translate(72.71112738715294 117.91109890407989) rotate(0 50.222201877170164 35.111117892795136)"><path d="M0.72 -1.05 C25.98 1.17, 48.41 -0.52, 102.35 0.96 M0.67 0.02 C40.24 0.44, 80.1 0.33, 100.85 0.13 M99.21 1.36 C98.78 21.17, 99.37 44.87, 100.36 71.27 M100.76 0.86 C101.6 25.51, 100.8 50.35, 100.3 70.93 M98.77 69.78 C71.96 69.58, 41.54 70.73, -1.48 72.09 M100.03 69.3 C76.97 70, 52.72 70.94, 0.27 71.01 M-1 68.5 C1.42 48.63, -0.88 29.79, 0.01 1.67 M0.07 69.65 C-0.04 46.1, 0.33 23.13, 0.03 0.06" stroke="#000000" stroke-width="1" fill="none"></path></g><g transform="translate(78.04444715711827 120.18889702690973) rotate(0 26.5 30)"><text x="0" y="15" font-family="Virgil, Segoe UI Emoji" font-size="16px" fill="#000000" text-anchor="start" style="white-space: pre;" direction="ltr">Nom</text><text x="0" y="35" font-family="Virgil, Segoe UI Emoji" font-size="16px" fill="#000000" text-anchor="start" style="white-space: pre;" direction="ltr">Prenom</text><text x="0" y="55" font-family="Virgil, Segoe UI Emoji" font-size="16px" fill="#000000" text-anchor="start" style="white-space: pre;" direction="ltr">Lille</text></g></svg>